<?xml version="1.0" ?><svg id="Icons" viewBox="0 0 48 48" xmlns="http://www.w3.org/2000/svg"><defs><style>.cls-1{fill:#656769;}.cls-2{fill:#525252;}.cls-3{fill:none;}.cls-17,.cls-18,.cls-3,.cls-5,.cls-6,.cls-7{stroke:#45413c;stroke-linecap:round;stroke-linejoin:round;}.cls-18,.cls-4{fill:#45413c;}.cls-4{opacity:0.15;}.cls-5{fill:#f0f0f0;}.cls-6{fill:#fff;}.cls-19,.cls-7{fill:#ff6242;}.cls-8{fill:#f0d5a8;}.cls-9{fill:#f7e5c6;}.cls-10{fill:#debb7e;}.cls-11{fill:#b89558;}.cls-12,.cls-17{fill:#ffcebf;}.cls-13{fill:#ffdcd1;}.cls-14{fill:#ffb59e;}.cls-15{fill:#a86c4d;}.cls-16{fill:#de926a;}.cls-20{fill:#ffa694;}</style></defs><title/><path class="cls-1" d="M27.94,32.84,20.39,30l-7.54,2.87A6.76,6.76,0,0,0,8.5,39.15V45H32.28V39.15A6.76,6.76,0,0,0,27.94,32.84Z"/><path class="cls-2" d="M27.94,32.84,20.39,30l-7.54,2.87A6.76,6.76,0,0,0,8.5,39.15v3a6.76,6.76,0,0,1,4.35-6.31L20.39,33l7.55,2.87a6.76,6.76,0,0,1,4.34,6.31v-3A6.76,6.76,0,0,0,27.94,32.84Z"/><path class="cls-3" d="M27.94,32.84,20.39,30l-7.54,2.87A6.76,6.76,0,0,0,8.5,39.15V45H32.28V39.15A6.76,6.76,0,0,0,27.94,32.84Z"/><ellipse class="cls-4" cx="20.41" cy="45.5" data-name="&lt;Ellipse&gt;" id="_Ellipse_" rx="13.5" ry="1.5"/><path class="cls-5" d="M20.39,30s-5,0-5,2.82a10,10,0,0,0,2.15,5.78l2.89-2.44,2.89,2.44a10,10,0,0,0,2.16-5.78C25.44,30,20.39,30,20.39,30Z"/><line class="cls-3" data-name="&lt;Path&gt;" id="_Path_" x1="11.87" x2="11.37" y1="45" y2="42.59"/><line class="cls-3" data-name="&lt;Path&gt;" id="_Path_2" x1="28.92" x2="29.42" y1="45" y2="42.59"/><polygon class="cls-6" data-name="&lt;Path&gt;" id="_Path_3" points="17.5 38.59 20.39 42.12 23.28 38.59 20.39 36.15 17.5 38.59"/><polygon class="cls-7" points="21.87 37.4 20.39 36.15 18.92 37.4 19.69 38.85 19.27 40.75 20.39 42.12 21.51 40.75 21.09 38.85 21.87 37.4"/><path class="cls-3" d="M10.86,34a6.82,6.82,0,0,0,1.35,4.57C13.89,41.06,16.77,45,16.77,45" data-name="&lt;Path&gt;" id="_Path_4"/><path class="cls-3" d="M29.92,34a6.77,6.77,0,0,1-1.34,4.57C26.89,41.06,24,45,24,45" data-name="&lt;Path&gt;" id="_Path_5"/><rect class="cls-8" data-name="&lt;Rectangle&gt;" height="7.75" id="_Rectangle_" rx="0.97" ry="0.97" transform="translate(8.16 -7.01) rotate(14.19)" width="1.94" x="31.28" y="25.38"/><path class="cls-9" d="M33.2,25.5a1,1,0,0,0-1.18.7l-.35,1.41a1.13,1.13,0,0,1,.85-.14l.25.07a1.07,1.07,0,0,1,.75.66l.39-1.52A1,1,0,0,0,33.2,25.5Z" data-name="&lt;Path&gt;" id="_Path_6"/><rect class="cls-3" data-name="&lt;Rectangle&gt;" height="7.75" id="_Rectangle_2" rx="0.97" ry="0.97" transform="translate(8.16 -7.01) rotate(14.19)" width="1.94" x="31.28" y="25.38"/><rect class="cls-8" data-name="&lt;Rectangle&gt;" height="7.75" id="_Rectangle_3" rx="0.97" ry="0.97" transform="translate(9.14 -9.53) rotate(14.19)" width="1.94" x="41.89" y="28.06"/><path class="cls-9" d="M43.81,28.18a1,1,0,0,0-1.18.7l-.35,1.41a1,1,0,0,1,.85-.14l.25.06a1.08,1.08,0,0,1,.75.67l.39-1.53A1,1,0,0,0,43.81,28.18Z" data-name="&lt;Path&gt;" id="_Path_7"/><rect class="cls-3" data-name="&lt;Rectangle&gt;" height="7.75" id="_Rectangle_4" rx="0.97" ry="0.97" transform="translate(9.14 -9.53) rotate(14.19)" width="1.94" x="41.89" y="28.06"/><rect class="cls-10" data-name="&lt;Rectangle&gt;" height="6.85" id="_Rectangle_5" transform="translate(8.65 -8.27) rotate(14.19)" width="9" x="33.06" y="27.17"/><rect class="cls-8" data-name="&lt;Path&gt;" height="9" id="_Path_8" transform="translate(1.19 58.41) rotate(-75.81)" width="2.4" x="36.91" y="23.94"/><rect class="cls-3" data-name="&lt;Rectangle&gt;" height="6.85" id="_Rectangle_6" transform="translate(8.65 -8.27) rotate(14.19)" width="9" x="33.06" y="27.17"/><rect class="cls-10" data-name="&lt;Rectangle&gt;" height="11.75" id="_Rectangle_7" transform="translate(10.79 -7.44) rotate(14.19)" width="2.11" x="34.22" y="33.74"/><rect class="cls-11" data-name="&lt;Path&gt;" height="2.11" id="_Path_9" transform="translate(-6.27 61.69) rotate(-75.81)" width="1.96" x="35.5" y="33.81"/><rect class="cls-3" data-name="&lt;Rectangle&gt;" height="11.75" id="_Rectangle_8" transform="translate(10.79 -7.44) rotate(14.19)" width="2.11" x="34.22" y="33.74"/><path class="cls-12" d="M32.33,36.62h0a1.54,1.54,0,0,1,1.54,1.54v6.73a0,0,0,0,1,0,0h0a2.34,2.34,0,0,1-2.34-2.34V37.41A.79.79,0,0,1,32.33,36.62Z" data-name="&lt;Rectangle&gt;" id="_Rectangle_9" transform="translate(10.99 -6.77) rotate(14.19)"/><path class="cls-13" d="M33.35,36.65a.8.8,0,0,0-1,.58l-.47,1.86a.79.79,0,0,1,1-.58A1.55,1.55,0,0,1,34,40.39l.47-1.86A1.55,1.55,0,0,0,33.35,36.65Z" data-name="&lt;Path&gt;" id="_Path_10"/><path class="cls-3" d="M32.33,36.62h0a1.54,1.54,0,0,1,1.54,1.54v6.73a0,0,0,0,1,0,0h0a2.34,2.34,0,0,1-2.34-2.34V37.41A.79.79,0,0,1,32.33,36.62Z" data-name="&lt;Rectangle&gt;" id="_Rectangle_10" transform="translate(10.99 -6.77) rotate(14.19)"/><path class="cls-12" d="M37,39l-1.94-.49a1.16,1.16,0,0,0-1.4.84,1.15,1.15,0,0,0,.78,1.37A1.15,1.15,0,0,0,34,43a1.15,1.15,0,0,0-.57,2.23l1.94.49h0A2.17,2.17,0,0,0,38,44.1l.62-2.44A2.19,2.19,0,0,0,37,39Z" data-name="&lt;Path&gt;" id="_Path_11"/><g data-name="&lt;Group&gt;" id="_Group_"><path class="cls-13" d="M37,39l-1.94-.49a1.16,1.16,0,0,0-1.4.84,1.18,1.18,0,0,0,0,.59,1.15,1.15,0,0,1,1.09-.32l1.94.49a2.17,2.17,0,0,1,1.58,2.65l.28-1.1A2.19,2.19,0,0,0,37,39Z" data-name="&lt;Path&gt;" id="_Path_12"/></g><path class="cls-3" d="M37,39l-1.94-.49a1.16,1.16,0,0,0-1.4.84,1.15,1.15,0,0,0,.78,1.37A1.15,1.15,0,0,0,34,43a1.15,1.15,0,0,0-.57,2.23l1.94.49h0A2.17,2.17,0,0,0,38,44.1l.62-2.44A2.19,2.19,0,0,0,37,39Z" data-name="&lt;Path&gt;" id="_Path_13"/><path class="cls-12" d="M20.39,27.16a2.55,2.55,0,0,0-2.54,2.55v2.85c0,1.4,2.54,3.59,2.54,3.59s2.55-2.19,2.55-3.59V29.71A2.55,2.55,0,0,0,20.39,27.16Z"/><path class="cls-14" d="M20.39,27.16a2.55,2.55,0,0,0-2.54,2.55v.59a2.55,2.55,0,0,0,5.09,0v-.59A2.55,2.55,0,0,0,20.39,27.16Z" data-name="&lt;Path&gt;" id="_Path_14"/><path class="cls-3" d="M20.39,27.16a2.55,2.55,0,0,0-2.54,2.55v2.85c0,1.4,2.54,3.59,2.54,3.59s2.55-2.19,2.55-3.59V29.71A2.55,2.55,0,0,0,20.39,27.16Z"/><path class="cls-15" d="M20.39,6.91A9.83,9.83,0,0,0,18,7.22c-1.86.42-4.27,1.12-6.46.7a4.17,4.17,0,0,0,.83,3.21,9.81,9.81,0,0,0-1.75,5.6v5.14H30.21V16.73A9.82,9.82,0,0,0,20.39,6.91Z" data-name="&lt;Path&gt;" id="_Path_15"/><g data-name="&lt;Group&gt;" id="_Group_2"><path class="cls-16" d="M20.39,6.91A9.83,9.83,0,0,0,18,7.22c-1.86.42-4.27,1.12-6.46.7a4.42,4.42,0,0,0,.67,3A19.4,19.4,0,0,0,18,10.14a9.81,9.81,0,0,1,12.26,9.51V16.73A9.82,9.82,0,0,0,20.39,6.91Z" data-name="&lt;Path&gt;" id="_Path_16"/></g><path class="cls-3" d="M20.39,6.91A9.83,9.83,0,0,0,18,7.22c-1.86.42-4.27,1.12-6.46.7a4.17,4.17,0,0,0,.83,3.21,9.81,9.81,0,0,0-1.75,5.6v5.14H30.21V16.73A9.82,9.82,0,0,0,20.39,6.91Z" data-name="&lt;Path&gt;" id="_Path_17"/><path class="cls-17" d="M31.26,21.12a1.83,1.83,0,0,0-1.39-1.54l-.59-.16a2.07,2.07,0,0,1-1.5-2V15.38a1.87,1.87,0,0,0-1.4-1.81,15.34,15.34,0,0,1-6,1.09,15.37,15.37,0,0,1-6-1.09A1.88,1.88,0,0,0,13,15.38v2.06a2.06,2.06,0,0,1-1.5,2l-.59.16a1.83,1.83,0,0,0-1.39,1.54,1.81,1.81,0,0,0,1.81,2h.11a9.05,9.05,0,0,0,17.91,0h.11A1.81,1.81,0,0,0,31.26,21.12Z"/><path class="cls-18" d="M15,20.91a.77.77,0,1,0,.77-.77A.76.76,0,0,0,15,20.91Z" data-name="&lt;Path&gt;" id="_Path_18"/><path class="cls-18" d="M25.83,20.91a.78.78,0,1,1-.78-.77A.77.77,0,0,1,25.83,20.91Z" data-name="&lt;Path&gt;" id="_Path_19"/><g data-name="&lt;Group&gt;" id="_Group_3"><g data-name="&lt;Group&gt;" id="_Group_4"><g data-name="&lt;Group&gt;" id="_Group_5"><g data-name="&lt;Group&gt;" id="_Group_6"><g data-name="&lt;Group&gt;" id="_Group_7"><g data-name="&lt;Group&gt;" id="_Group_8"><g data-name="&lt;Group&gt;" id="_Group_9"><path class="cls-19" d="M17.56,25.6a.44.44,0,0,0-.34.16.45.45,0,0,0-.1.35,3.32,3.32,0,0,0,6.55,0,.46.46,0,0,0-.11-.35.42.42,0,0,0-.33-.16Z" data-name="&lt;Path&gt;" id="_Path_20"/><path class="cls-20" d="M20.39,27a4,4,0,0,0-2.52.77,3.36,3.36,0,0,0,5,0A4,4,0,0,0,20.39,27Z" data-name="&lt;Path&gt;" id="_Path_21"/></g></g></g></g></g></g></g><g data-name="&lt;Group&gt;" id="_Group_10"><path class="cls-3" d="M17.56,25.6a.44.44,0,0,0-.34.16.45.45,0,0,0-.1.35,3.32,3.32,0,0,0,6.55,0,.46.46,0,0,0-.44-.51Z" data-name="&lt;Path&gt;" id="_Path_22"/></g><ellipse class="cls-14" cx="14.45" cy="24.19" data-name="&lt;Ellipse&gt;" id="_Ellipse_2" rx="1" ry="0.6"/><ellipse class="cls-14" cx="26.33" cy="24.19" data-name="&lt;Ellipse&gt;" id="_Ellipse_3" rx="1" ry="0.6"/></svg>