<?xml version="1.0" ?><svg id="fill" viewBox="0 0 64 64" xmlns="http://www.w3.org/2000/svg"><path d="M25.08,31.225,8.109,48.134a3,3,0,0,1-4.243,0h0a3,3,0,0,1,0-4.243L20.837,26.982Z" style="fill:#e5e6eb"/><path d="M30.536,28.536l-3.411,3.41a1.893,1.893,0,0,1-2.677,0l-4.394-4.394a1.893,1.893,0,0,1,0-2.677l3.41-3.411Z" style="fill:#d9dae2"/><rect height="6" style="fill:#e5e6eb" width="26" x="31" y="49"/><path d="M29.963,53H58.037A2.963,2.963,0,0,1,61,55.963V61a0,0,0,0,1,0,0H27a0,0,0,0,1,0,0V55.963A2.963,2.963,0,0,1,29.963,53Z" style="fill:#444"/><path d="M22.927,29.073,3.867,48.133a3,3,0,0,0,4.242,0L25.08,31.225Z" style="fill:#d9dae2"/><polygon points="34 59 30 59 30 55 34 59" style="fill:#fff"/><rect height="4" style="fill:#d9dae2" width="2" x="55" y="49"/><path d="M58.037,53h-2A2.962,2.962,0,0,1,59,55.963V61h2V55.963A2.962,2.962,0,0,0,58.037,53Z"/><path d="M27.832,32.653l2.618-2.617-1.414-1.414-2.618,2.617a.894.894,0,0,1-1.263,0l-4.394-4.394a.894.894,0,0,1,0-1.263l2.41-2.411-1.414-1.414-2.41,2.411a2.851,2.851,0,0,0-.523,3.351L3.159,43.184a4,4,0,0,0,5.657,5.657L24.481,33.176a2.851,2.851,0,0,0,3.351-.523ZM7.4,47.427A2,2,0,1,1,4.573,44.6L20.129,29.042l2.829,2.829Z"/><path d="M58.037,52H58V49a1,1,0,0,0-1-1H31a1,1,0,0,0-1,1v3h-.037A3.966,3.966,0,0,0,26,55.963V61a1,1,0,0,0,1,1H61a1,1,0,0,0,1-1V55.963A3.966,3.966,0,0,0,58.037,52ZM32,50H56v2H32ZM60,60H28V55.963A1.966,1.966,0,0,1,29.963,54H58.037A1.966,1.966,0,0,1,60,55.963Z"/><path d="M42.757,20.556h0A17.887,17.887,0,0,1,31.444,9.243L27.963,5.725,15.333,18.588l3.383,3.383h0A17.887,17.887,0,0,1,30.029,33.284l3.435,3.49L46.126,23.925Z" style="fill:#027de5"/><path d="M42.757,20.556h0A17.887,17.887,0,0,1,31.444,9.243L27.963,5.725,15.333,18.588l3.383,3.383h0A17.887,17.887,0,0,1,30.029,33.284l3.435,3.49L46.126,23.925Z" style="fill:#027de5"/><path d="M37.631,25.782h0A17.887,17.887,0,0,1,26.317,14.468l-3.481-3.517-7.5,7.639,3.38,3.381h0A17.887,17.887,0,0,1,30.029,33.284l3.435,3.49,7.524-7.635Z" style="fill:#0468ad"/><rect height="4" rx="2" ry="2" style="fill:#444" transform="translate(-10.134 37.861) rotate(-45)" width="22" x="29.636" y="29.163"/><rect height="4" style="fill:#85b4e0" transform="translate(-8.962 35.033) rotate(-45)" width="18" x="28.808" y="26.335"/><rect height="4" style="fill:#85b4e0" transform="translate(-3.104 20.891) rotate(-45)" width="18" x="14.665" y="12.192"/><rect height="4" rx="2" ry="2" style="fill:#444" transform="translate(-1.933 18.062) rotate(-45)" width="22" x="9.837" y="9.364"/></svg>